<svg viewBox="0 0 324 246" preserveAspectRatio="xMidYMid meet" width="100%" height="100%" fill="none" xmlns="http://www.w3.org/2000/svg" aria-label="dreamDEX">
  <path d="M0 113.574H11.3574C14.5753 113.574 17.4146 112.911 19.8754 111.586C22.3362 110.072 24.3237 108.179 25.838 105.908C27.5416 103.447 28.772 100.797 29.5292 97.9574C30.4756 94.9287 30.9488 91.9001 30.9488 88.8715V43.158C30.9488 36.1543 31.6114 30.0024 32.9364 24.7023C34.4507 19.4022 36.9115 14.9539 40.3187 11.3574C43.7259 7.57159 48.2688 4.73225 53.9475 2.83936C59.8155 0.946453 67.1031 0 75.8105 0H98.8091V18.4557H74.6747C66.7246 18.4557 61.0459 20.254 57.6387 23.8505C54.4207 27.447 52.8118 33.9775 52.8118 43.442V82.6249C52.8118 95.3073 50.9189 104.677 47.1331 110.734C43.3473 116.602 38.9936 120.577 34.0721 122.66C38.9936 124.931 43.3473 129.19 47.1331 135.437C50.9189 141.683 52.8118 150.769 52.8118 162.694V201.877C52.8118 211.342 54.5154 217.872 57.9226 221.469C61.3298 225.065 67.0085 226.864 74.9587 226.864H98.8091V245.319H75.8105C67.1031 245.319 59.8155 244.373 53.9475 242.48C48.2688 240.587 43.7259 237.748 40.3187 233.962C36.9115 230.365 34.4507 225.917 32.9364 220.617C31.6114 215.317 30.9488 209.165 30.9488 202.161V156.448C30.9488 153.608 30.4756 150.769 29.5292 147.93C28.772 144.901 27.5416 142.251 25.838 139.98C24.3237 137.519 22.3362 135.531 19.8754 134.017C17.6039 132.503 14.8592 131.746 11.6413 131.746H0V113.574Z" fill="currentColor"/>
  <path d="M323.481 131.746H312.124C308.906 131.746 306.067 132.503 303.606 134.017C301.334 135.342 299.347 137.235 297.643 139.696C296.129 141.967 294.899 144.617 293.952 147.646C293.195 150.485 292.816 153.419 292.816 156.448V202.161C292.816 209.165 292.059 215.317 290.545 220.617C289.22 225.917 286.759 230.365 283.163 233.962C279.755 237.748 275.118 240.587 269.25 242.48C263.571 244.373 256.378 245.319 247.671 245.319H224.672V226.864H248.807C256.757 226.864 262.341 225.065 265.559 221.469C268.966 217.872 270.67 211.342 270.67 201.877V162.694C270.67 150.012 272.562 140.737 276.348 134.869C280.134 128.812 284.488 124.742 289.409 122.66C284.488 120.388 280.134 116.129 276.348 109.883C272.562 103.636 270.67 94.5501 270.67 82.6249V43.442C270.67 33.9775 268.966 27.447 265.559 23.8505C262.152 20.254 256.473 18.4557 248.523 18.4557H224.672V0H247.671C256.378 0 263.571 0.946453 269.25 2.83936C275.118 4.73225 279.755 7.57159 283.163 11.3574C286.759 14.9539 289.22 19.4022 290.545 24.7023C292.059 30.0024 292.816 36.1543 292.816 43.158V88.8715C292.816 91.7108 293.195 94.6448 293.952 97.6734C294.709 100.513 295.845 103.163 297.359 105.624C299.063 107.895 301.051 109.788 303.322 111.302C305.783 112.817 308.622 113.574 311.84 113.574H323.481V131.746Z" fill="currentColor"/>
  <path d="M154.309 198.819C139.391 198.819 127.379 193.637 118.271 183.273C109.163 172.752 104.609 157.991 104.609 138.991C104.609 126.585 107.043 115.907 111.911 106.957C116.936 97.8491 123.374 90.8613 131.226 85.9934C139.234 81.1255 147.714 78.6916 156.664 78.6916C163.417 78.6916 169.541 80.0263 175.037 82.6958C180.69 85.2083 185.95 88.8199 190.818 93.5308H191.525L190.583 72.3319V28.2853H209.897V195.992H193.88L192.231 180.917H191.525C186.971 185.785 181.396 190.025 174.801 193.637C168.363 197.091 161.532 198.819 154.309 198.819ZM158.313 182.566C163.966 182.566 169.462 181.153 174.801 178.326C180.14 175.343 185.401 171.025 190.583 165.372V108.37C185.401 103.502 180.297 100.047 175.272 98.0061C170.404 95.9647 165.458 94.9441 160.433 94.9441C153.838 94.9441 147.792 96.8284 142.296 100.597C136.957 104.209 132.639 109.312 129.341 115.907C126.201 122.346 124.631 129.962 124.631 138.755C124.631 152.417 127.614 163.173 133.581 171.025C139.548 178.719 147.792 182.566 158.313 182.566Z" fill="currentColor"/>
</svg>
